<svg id="Calque_1" data-name="Calque 1" xmlns="http://www.w3.org/2000/svg" viewBox="0 0 300 300"><path d="M183.11,150a32.11,32.11,0,0,1-31.38,32.83h-1.44A32.83,32.83,0,1,1,183.11,150Z"/><path d="M193.1,70.08l-42.81-1.43H108.9A38.39,38.39,0,0,0,70.36,106.9V190a38.39,38.39,0,0,0,38.39,38.39h82.92a38.39,38.39,0,0,0,38.54-38.24v-.29l1.43-40V108.61a38.39,38.39,0,0,0-38.25-38.53Zm-42.81,131.3a51.52,51.52,0,1,1,51.38-51.66V150a51.25,51.25,0,0,1-51.1,51.38Zm52.8-92.77a12.56,12.56,0,0,1-12.84-11.42,11.27,11.27,0,0,1,11.13-11.41,1.4,1.4,0,0,1,.29,0,14.26,14.26,0,0,1,12.84,11.41A12.26,12.26,0,0,1,203.09,108.61Z"/><path d="M150.29,0A150,150,0,1,0,300,150.29V150A150,150,0,0,0,150.29,0Zm99.9,192.82a57.09,57.09,0,0,1-57.09,57.09H108.9a57.09,57.09,0,0,1-57.09-57.09V108.61A57.07,57.07,0,0,1,107.43,50.1H193.1a57.08,57.08,0,0,1,57.09,57.08Z"/></svg>