<svg id="Calque_1" data-name="Calque 1" xmlns="http://www.w3.org/2000/svg" viewBox="0 0 350.22 287.85"><defs><style>.cls-1{fill:#fff;}</style></defs><path id="path3019" class="cls-1" d="M299.64,220.92H54.17V66H299.64V220.92Z"/><path id="path3063" d="M289.06,203.9h-60V83.35h19.79V186.5a10.2,10.2,0,1,0,20.4,0v-21h19.79V203.9Zm-74.37-80.37c0,6-5.25,16.65-13,16.65,7.79,0,13,6.74,13,11.84v36.13c0,6.15-4.94,15.75-19.78,15.75H155.33V83.35h39.58c7.64,0,19.78,6.3,19.78,19.64Zm-74.36,59.38c0,12-7.79,22.78-30,22.78s-30-14.09-30-22.78v-17.4h19.79v21a10.21,10.21,0,0,0,10.2,10.21,10.32,10.32,0,0,0,10.19-10.35v-103h19.79V182.9ZM90.26,129.47a11.46,11.46,0,1,1-11.45,11.46,11.44,11.44,0,0,1,11.45-11.46m18.29-46.12L90.26,125,72,83.35ZM0,287.85H350.22V0H0V287.85ZM185.91,94.75H175.12v40.47l10.79,0c7.2,0,9-1.23,9-20.12s-1.8-20.39-9-20.39m1.2,50.68h-12V194l12,0c7.8,0,7.8-5.28,7.8-24.17s0-24.43-7.8-24.43"/></svg>