<svg id="Calque_1" data-name="Calque 1" xmlns="http://www.w3.org/2000/svg" viewBox="0 0 358 343"><defs><style>.cls-1{fill-rule:evenodd;}</style></defs><path class="cls-1" d="M139,265c-22,0-39,17-39,39a39,39,0,0,0,39,39c21,0,38-18,38-39C177,282,160,265,139,265Zm0,61c-13,0-23-10-23-22a22.63,22.63,0,0,1,23-23c12,0,22,10,22,23A22.2,22.2,0,0,1,139,326Z"/><path class="cls-1" d="M350,53H77C70,19,41,0,8,0-3,0-3,16,8,16c26,0,48,17,53,43L88,216c4,23,24,40,47,40H298c11,0,11-17,0-17H135c-15,1-29-10-31-25l-2-11H282c22,0,42-15,47-37L358,65A10.37,10.37,0,0,0,350,53ZM314,163a33.3,33.3,0,0,1-32,24H99c-7-42-14-80-20-118H339C331,100,323,128,314,163Z"/><path class="cls-1" d="M252,265c-21,0-38,17-38,39,0,21,17,39,38,39a39,39,0,0,0,39-39C291,282,274,265,252,265Zm0,61a22.2,22.2,0,0,1-22-22c0-13,10-23,22-23a22.63,22.63,0,0,1,23,23C275,316,265,326,252,326Z"/></svg>