<svg id="Calque_1" data-name="Calque 1" xmlns="http://www.w3.org/2000/svg" viewBox="0 0 358 343"><defs><style>.cls-1{fill:#1d1d1b;}</style></defs><path class="cls-1" d="M349.47,52.65H120a46.78,46.78,0,0,0-92.35,0H8.53a7.5,7.5,0,0,0,0,15H27.6a46.78,46.78,0,0,0,92.35,0H349.47a7.5,7.5,0,0,0,0-15Zm-242.76,15a33.9,33.9,0,1,1,.84-7.5A33.85,33.85,0,0,1,106.71,67.65Z"/><path class="cls-1" d="M349.47,164H326.15a46.78,46.78,0,0,0-92.35,0H8.53a7.5,7.5,0,0,0,0,15H233.8a46.78,46.78,0,0,0,92.35,0h23.32a7.5,7.5,0,0,0,0-15Zm-36.56,15a33.9,33.9,0,1,1,.84-7.5A33.84,33.84,0,0,1,312.91,179Z"/><path class="cls-1" d="M349.47,275.35H205.54a46.77,46.77,0,0,0-92.86,0H8.53a7.5,7.5,0,1,0,0,15H113.28a46.78,46.78,0,0,0,91.66,0H349.47a7.5,7.5,0,0,0,0-15Zm-223.65,0a33.77,33.77,0,0,1,66.58,0,33,33,0,0,1,.48,5.65,33.77,33.77,0,1,1-67.54,0A33,33,0,0,1,125.82,275.35Z"/></svg>